<?xml version="1.0" encoding="utf-8"?>
<svg width="19px" height="16px" viewBox="0 0 19 16" xmlns="http://www.w3.org/2000/svg">
  <title>Repeat Hover</title>
  <path d="M 16.5 10 L 14 7 L 19 7 L 16.5 10" id="Fill-6" style="fill: rgb(255, 85, 0);"/>
  <path d="M 2.5 8 L 5 11 L 0 11 L 2.5 8" id="Fill-7" style="fill: rgb(255, 85, 0);"/>
  <path d="M 15.326 11 L 16.418 11 L 16.418 11 C 15.232 13.932 12.357 16 9 16 C 5.272 16 2.14 13.45 1.252 10 L 1.252 10 L 2.29 10 C 3.15 12.891 5.829 15 9 15 C 11.792 15 14.203 13.365 15.326 11 Z M 15.929 7 L 16.938 7 C 16.446 3.054 13.08 0 9 0 C 5.272 0 2.14 2.55 1.252 6 L 2.29 6 C 3.15 3.109 5.829 1 9 1 C 12.526 1 15.444 3.608 15.929 7 Z" id="Oval-112" style="fill: rgb(255, 85, 0);"/>
  <path d="M 6.999 11 L 7.999 11 L 7.999 8.425 L 11.19 8.425 L 11.19 5 L 6.999 5 Z M 7.999 7.425 L 7.999 6 L 10.19 6 L 10.19 7.425 Z" id="path-5" style="fill: rgb(255, 85, 0);"/>
</svg>