<?xml version="1.0" encoding="utf-8"?>
<svg width="19px" height="16px" viewBox="0 0 19 16" xmlns="http://www.w3.org/2000/svg">
  <title>Repeat On</title>
  <g id="Page-1" stroke="none" stroke-width="1" fill="none" fill-rule="evenodd">
    <g id="Player" transform="translate(-2758.000000, -313.000000)" fill="#FF5500">
      <g id="Repeat-On" transform="translate(2758.000000, 313.000000)">
        <path d="M9,6 L8,6 L8,7 L9,7 L9,11 L10,11 L10,5 L9,5 L9,6 Z" id="Fill-1"/>
        <path d="M16.5,10 L14,7 L19,7 L16.5,10" id="Fill-6"/>
        <path d="M2.5,8 L5,11 L0,11 L2.5,8" id="Fill-7"/>
        <path d="M15.3263689,11.0000001 L16.4184831,11.0000001 L16.4184831,11.0000001 C15.2317083,13.9318304 12.3573776,16.0000001 9.00000006,16.0000001 C5.27232117,16.0000001 2.14012056,13.4504545 1.25203497,10.0000001 L1.25203497,10.0000001 L2.28987869,10.0000001 C3.15042788,12.891489 5.8289794,15.0000001 9.00000006,15.0000001 C11.792396,15.0000001 14.202905,13.3649474 15.3263689,11.0000001 Z M15.9291113,7.00000005 L16.9381064,7.00000005 C16.4460083,3.05368845 13.0796177,0 9.00000006,0 C5.27232117,0 2.14012056,2.54954559 1.25203497,6.00000005 L2.28987869,6.00000005 C3.15042788,3.10851108 5.8289794,1.00000001 9.00000006,1.00000001 C12.526472,1.00000001 15.4438816,3.60770589 15.9291113,7.00000005 Z" id="Oval-112"/>
      </g>
    </g>
  </g>
</svg>